<svg id="bc36bff8-7d5f-4bef-8641-e83437020066" data-name="Layer 1" xmlns="http://www.w3.org/2000/svg" viewBox="0 0 285.18 285.18"><defs><style>.e2dc4413-346b-4726-a3a3-6bb55509fbbd{fill:#0072CE;}</style></defs><title>rdrl-logo-full-02</title><polygon class="e2dc4413-346b-4726-a3a3-6bb55509fbbd" points="285.18 5.97 285.18 0 0.06 0 0 5.97 0 180.62 18.5 180.62 18.5 18.52 266.69 18.49 266.69 266.68 241.78 266.68 241.7 285.18 285.18 285.18 285.18 5.97"/><path class="e2dc4413-346b-4726-a3a3-6bb55509fbbd" d="M47.64,253.12c10.48-4,16.7-13.28,16.7-25.72,0-17.06-11.1-27.55-29.14-27.55H.46v85.33h18v-30h11l16.08,30H65L47.64,253.24ZM33,238.74H18.5V216.31H33c8.78,0,13.29,3.66,13.29,11S41.66,238.74,33,238.74Z"/><path class="e2dc4413-346b-4726-a3a3-6bb55509fbbd" d="M110.51,199.85H80.88v85.33h29.5c22.8,0,37.55-15.84,37.55-42.66C147.93,215.94,133.18,199.85,110.51,199.85Zm-.13,68.76H98.93V216.43h11.45c12,0,19.51,8.78,19.51,26.09S122.33,268.61,110.38,268.61Z"/><path class="e2dc4413-346b-4726-a3a3-6bb55509fbbd" d="M209.73,253.12c10.48-4,16.7-13.28,16.7-25.72,0-17.06-11.09-27.55-29.14-27.55H162.55v85.33h18v-30h11l16.09,30H227l-17.31-31.94ZM195.1,238.74H180.6V216.31h14.5c8.78,0,13.29,3.66,13.29,11S203.76,238.74,195.1,238.74Z"/></svg>