<svg id="f7cd8b6b-7828-4da3-841e-3dbf526c115e" data-name="Layer 1" xmlns="http://www.w3.org/2000/svg" viewBox="0 0 222.91 211.88"><defs><style>.a406a75c-7aaa-4402-be08-f5ec3c874ec2{fill:#0d75f5;}</style></defs><title>rdrl-logo</title><path class="a406a75c-7aaa-4402-be08-f5ec3c874ec2" d="M28.23,192.93c6.15-2.36,9.8-7.8,9.8-15.09,0-10-6.51-16.17-17.1-16.17H.54v50.08H11.13v-17.6h6.44L27,211.75H38.39L28.23,193Zm-8.59-8.44H11.13V171.33h8.51c5.15,0,7.8,2.14,7.8,6.44S24.72,184.49,19.64,184.49Z"/><path class="a406a75c-7aaa-4402-be08-f5ec3c874ec2" d="M67.17,161.67H49.78v50.08H67.09c13.38,0,22-9.3,22-25S80.47,161.67,67.17,161.67ZM67.09,202H60.37V171.4h6.72c7,0,11.45,5.15,11.45,15.31S74.11,202,67.09,202Z"/><path class="a406a75c-7aaa-4402-be08-f5ec3c874ec2" d="M127.58,192.93c6.15-2.36,9.8-7.8,9.8-15.09,0-10-6.51-16.17-17.1-16.17H99.89v50.08h10.59v-17.6h6.44l9.44,17.6h11.38L127.58,193ZM119,184.49h-8.51V171.33H119c5.15,0,7.8,2.14,7.8,6.44S124.07,184.49,119,184.49Z"/><polygon class="a406a75c-7aaa-4402-be08-f5ec3c874ec2" points="159.38 161.67 148.79 161.67 148.79 211.75 180.55 211.75 180.55 201.19 159.38 201.19 159.38 161.67"/><polygon class="a406a75c-7aaa-4402-be08-f5ec3c874ec2" points="222.91 0 222.91 0 212.32 0 11.13 0 0.59 0 0.54 0 0.54 144.71 11.13 144.71 11.13 10.59 212.32 10.59 212.32 201.19 196.43 201.19 196.43 211.75 212.32 211.75 217.61 211.75 222.91 211.75 222.91 10.59 222.91 10.59 222.91 0"/></svg>