<?xml version="1.0" encoding="utf-8"?>
<!-- Generator: Adobe Illustrator 23.0.1, SVG Export Plug-In . SVG Version: 6.00 Build 0)  -->
<svg version="1.1" id="Layer_1" xmlns="http://www.w3.org/2000/svg" xmlns:xlink="http://www.w3.org/1999/xlink" x="0px" y="0px"
	 viewBox="0 0 470.73 198.81" style="enable-background:new 0 0 470.73 198.81;" xml:space="preserve">
<style type="text/css">
	.st0{fill:#0072CE;}
	.st1{fill:#FFFFFF;}
</style>
<g>
	<path class="st0" d="M25.27,181.33c5.62-2.15,8.95-7.12,8.95-13.78c0-9.14-5.94-14.76-15.61-14.76H0v45.71h9.67v-16.06h5.88
		l8.62,16.06h10.38l-9.27-17.11V181.33z M17.44,173.63H9.67v-12.01h7.77c4.7,0,7.12,1.96,7.12,5.88
		C24.55,171.47,22.07,173.63,17.44,173.63z"/>
	<path class="st0" d="M60.83,152.8H44.96v45.71h15.8c12.21,0,20.11-8.49,20.11-22.86C80.88,161.41,72.98,152.8,60.83,152.8z
		 M60.77,189.63h-6.14v-27.95h6.14c6.4,0,10.45,4.7,10.45,13.97C71.22,184.99,67.17,189.63,60.77,189.63z"/>
	<path class="st0" d="M116.25,181.33c5.62-2.15,8.95-7.12,8.95-13.78c0-9.14-5.94-14.76-15.61-14.76H90.98v45.71h9.67v-16.06h5.88
		l8.62,16.06h10.38l-9.27-17.11V181.33z M108.41,173.63h-7.77v-12.01h7.77c4.7,0,7.12,1.96,7.12,5.88
		C115.53,171.47,113.05,173.63,108.41,173.63z"/>
	<polygon class="st0" points="146.62,152.8 136.96,152.8 136.96,198.51 165.95,198.51 165.95,189.63 146.62,189.63 	"/>
	<polygon class="st0" points="201.63,0 9.67,0 0.04,0 0,0 0,137.8 9.67,137.8 9.67,9.67 201.63,9.67 201.63,189.63 182.3,189.63 
		182.3,198.51 201.63,198.51 211.29,198.51 211.29,189.63 211.29,9.67 211.29,0 	"/>
</g>
<g>
	<g>
		<path class="st1" d="M254.97,171.16l-3.41-7.64h-4.99v7.64h-2.26v-18.35h7.07c1.07,0,1.98,0.14,2.72,0.43
			c0.75,0.28,1.37,0.69,1.86,1.2c0.44,0.47,0.79,1,1.04,1.61c0.25,0.6,0.38,1.31,0.38,2.12c0,0.81-0.12,1.5-0.36,2.07
			c-0.24,0.57-0.58,1.09-1.02,1.55c-0.27,0.29-0.59,0.55-0.95,0.76c-0.36,0.22-0.77,0.39-1.21,0.53l3.61,8.08H254.97z
			 M255.05,158.17c0-1.16-0.34-1.98-1.03-2.48c-0.69-0.5-1.56-0.75-2.63-0.75h-4.81v6.45h4.81c0.53,0,1.01-0.06,1.46-0.17
			c0.45-0.11,0.84-0.3,1.17-0.56c0.33-0.26,0.59-0.59,0.76-1C254.96,159.25,255.05,158.76,255.05,158.17z"/>
		<path class="st1" d="M270.86,164.61c0,1.04-0.13,2.01-0.38,2.93c-0.25,0.91-0.74,1.73-1.45,2.43c-0.48,0.47-1.04,0.84-1.69,1.11
			c-0.65,0.28-1.39,0.41-2.2,0.41c-0.81,0-1.55-0.14-2.2-0.41c-0.65-0.28-1.22-0.65-1.69-1.11c-0.71-0.71-1.2-1.52-1.45-2.43
			c-0.25-0.91-0.38-1.89-0.38-2.93c0-1.04,0.13-2.01,0.38-2.92c0.25-0.91,0.74-1.73,1.45-2.43c0.47-0.47,1.04-0.84,1.69-1.11
			c0.65-0.28,1.39-0.41,2.2-0.41c0.81,0,1.55,0.14,2.2,0.41c0.65,0.28,1.22,0.65,1.69,1.11c0.71,0.71,1.2,1.52,1.45,2.43
			C270.74,162.6,270.86,163.58,270.86,164.61z M268.65,164.61c0-0.78-0.09-1.53-0.25-2.25c-0.17-0.72-0.48-1.33-0.94-1.81
			c-0.27-0.28-0.6-0.5-0.98-0.67c-0.38-0.17-0.83-0.26-1.34-0.26c-0.51,0-0.95,0.09-1.34,0.26c-0.38,0.17-0.71,0.4-0.98,0.67
			c-0.46,0.48-0.77,1.09-0.94,1.81c-0.17,0.72-0.25,1.48-0.25,2.25c0,0.78,0.08,1.53,0.25,2.25c0.17,0.72,0.48,1.33,0.94,1.81
			c0.27,0.28,0.6,0.5,0.98,0.67c0.38,0.17,0.83,0.26,1.34,0.26c0.51,0,0.95-0.09,1.34-0.26c0.38-0.17,0.71-0.4,0.98-0.67
			c0.46-0.48,0.77-1.09,0.94-1.81C268.56,166.14,268.65,165.39,268.65,164.61z"/>
		<path class="st1" d="M283.87,167.36c0,0.57-0.09,1.07-0.28,1.51c-0.19,0.44-0.43,0.82-0.74,1.15c-0.49,0.52-1.1,0.89-1.83,1.13
			c-0.73,0.23-1.52,0.35-2.37,0.35c-0.81,0-1.58-0.11-2.29-0.32c-0.71-0.22-1.34-0.6-1.88-1.15c-0.39-0.4-0.7-0.86-0.92-1.38
			c-0.22-0.53-0.33-1.07-0.33-1.62h2.16c0.02,0.45,0.12,0.84,0.31,1.18c0.19,0.34,0.43,0.63,0.74,0.87
			c0.29,0.22,0.64,0.38,1.07,0.47c0.42,0.09,0.84,0.13,1.25,0.13c0.44,0,0.86-0.05,1.26-0.14c0.4-0.09,0.77-0.29,1.11-0.58
			c0.19-0.14,0.34-0.34,0.46-0.6c0.12-0.26,0.18-0.53,0.18-0.83c0-0.5-0.17-0.91-0.51-1.24c-0.34-0.33-0.84-0.53-1.5-0.62
			c-0.14-0.02-0.32-0.04-0.56-0.08c-0.24-0.03-0.49-0.07-0.76-0.1c-0.27-0.03-0.55-0.07-0.83-0.1c-0.28-0.03-0.53-0.07-0.75-0.1
			c-0.97-0.16-1.73-0.53-2.3-1.13c-0.57-0.6-0.85-1.39-0.85-2.39c0-0.5,0.11-0.98,0.32-1.44c0.21-0.46,0.46-0.83,0.75-1.13
			c0.42-0.45,0.96-0.8,1.6-1.06c0.64-0.26,1.37-0.39,2.19-0.39c0.87,0,1.65,0.14,2.37,0.41c0.71,0.28,1.29,0.69,1.73,1.24
			c0.29,0.35,0.51,0.72,0.67,1.11c0.16,0.4,0.24,0.86,0.24,1.4h-2.16c-0.02-0.34-0.1-0.66-0.24-0.94c-0.14-0.28-0.31-0.51-0.5-0.69
			c-0.51-0.47-1.21-0.7-2.11-0.7c-0.25,0-0.49,0.01-0.71,0.03s-0.48,0.09-0.79,0.23c-0.41,0.17-0.73,0.42-0.95,0.74
			c-0.23,0.32-0.34,0.66-0.34,1.02c0,0.55,0.15,0.95,0.46,1.2c0.31,0.25,0.73,0.42,1.27,0.5c0.36,0.05,0.79,0.11,1.3,0.17
			s1.11,0.15,1.81,0.27c0.92,0.16,1.69,0.55,2.33,1.19C283.55,165.56,283.87,166.38,283.87,167.36z"/>
		<path class="st1" d="M296.94,167.36c0,0.57-0.09,1.07-0.28,1.51c-0.19,0.44-0.43,0.82-0.74,1.15c-0.49,0.52-1.1,0.89-1.83,1.13
			c-0.73,0.23-1.52,0.35-2.37,0.35c-0.81,0-1.58-0.11-2.29-0.32c-0.71-0.22-1.34-0.6-1.88-1.15c-0.39-0.4-0.7-0.86-0.92-1.38
			c-0.22-0.53-0.33-1.07-0.33-1.62h2.16c0.02,0.45,0.12,0.84,0.31,1.18c0.19,0.34,0.43,0.63,0.74,0.87
			c0.29,0.22,0.65,0.38,1.07,0.47c0.42,0.09,0.84,0.13,1.25,0.13c0.44,0,0.86-0.05,1.26-0.14c0.4-0.09,0.77-0.29,1.11-0.58
			c0.19-0.14,0.34-0.34,0.46-0.6c0.12-0.26,0.18-0.53,0.18-0.83c0-0.5-0.17-0.91-0.51-1.24c-0.34-0.33-0.84-0.53-1.5-0.62
			c-0.14-0.02-0.32-0.04-0.56-0.08c-0.24-0.03-0.49-0.07-0.76-0.1c-0.27-0.03-0.55-0.07-0.83-0.1c-0.28-0.03-0.53-0.07-0.75-0.1
			c-0.97-0.16-1.74-0.53-2.3-1.13c-0.57-0.6-0.85-1.39-0.85-2.39c0-0.5,0.11-0.98,0.32-1.44c0.21-0.46,0.46-0.83,0.75-1.13
			c0.42-0.45,0.96-0.8,1.6-1.06c0.65-0.26,1.37-0.39,2.19-0.39c0.86,0,1.65,0.14,2.37,0.41c0.71,0.28,1.29,0.69,1.73,1.24
			c0.29,0.35,0.51,0.72,0.67,1.11c0.16,0.4,0.24,0.86,0.24,1.4h-2.16c-0.02-0.34-0.1-0.66-0.24-0.94c-0.14-0.28-0.31-0.51-0.5-0.69
			c-0.51-0.47-1.21-0.7-2.11-0.7c-0.25,0-0.49,0.01-0.71,0.03c-0.22,0.02-0.48,0.09-0.79,0.23c-0.41,0.17-0.73,0.42-0.95,0.74
			s-0.34,0.66-0.34,1.02c0,0.55,0.15,0.95,0.46,1.2c0.31,0.25,0.73,0.42,1.27,0.5c0.36,0.05,0.79,0.11,1.3,0.17s1.11,0.15,1.81,0.27
			c0.92,0.16,1.69,0.55,2.33,1.19C296.62,165.56,296.94,166.38,296.94,167.36z"/>
		<path class="st1" d="M319.76,161.97c0,0.66-0.03,1.32-0.09,1.99c-0.06,0.67-0.17,1.32-0.33,1.95s-0.39,1.23-0.7,1.81
			c-0.31,0.58-0.7,1.11-1.2,1.59c-0.65,0.62-1.37,1.08-2.19,1.38c-0.81,0.3-1.66,0.45-2.54,0.45h-6.29v-18.35h6.29
			c0.88,0,1.73,0.16,2.54,0.47c0.81,0.31,1.54,0.78,2.19,1.4c0.49,0.48,0.89,1.01,1.2,1.58c0.31,0.57,0.54,1.17,0.7,1.8
			c0.16,0.63,0.27,1.28,0.33,1.94C319.73,160.66,319.76,161.32,319.76,161.97z M317.47,161.97c0-0.48-0.01-0.99-0.04-1.51
			c-0.03-0.53-0.09-1.04-0.2-1.54c-0.11-0.5-0.27-0.98-0.47-1.45s-0.48-0.89-0.84-1.27c-0.42-0.43-0.92-0.75-1.48-0.96
			c-0.56-0.21-1.14-0.31-1.73-0.31h-4.02v14.11h4.02c0.59,0,1.17-0.1,1.73-0.31c0.56-0.21,1.05-0.53,1.48-0.96
			c0.36-0.36,0.64-0.78,0.84-1.24s0.36-0.95,0.47-1.46c0.11-0.51,0.18-1.03,0.2-1.55C317.46,162.99,317.47,162.48,317.47,161.97z"/>
		<path class="st1" d="M333.17,165.34h-9.11c0,0.6,0.11,1.2,0.33,1.8s0.53,1.09,0.92,1.49c0.61,0.62,1.4,0.93,2.37,0.93
			c1.05,0,1.85-0.28,2.39-0.85c0.19-0.19,0.34-0.39,0.46-0.6c0.12-0.21,0.22-0.48,0.31-0.83h2.11c-0.08,0.66-0.31,1.27-0.66,1.84
			c-0.36,0.57-0.8,1.04-1.32,1.4c-0.46,0.31-0.97,0.55-1.53,0.72c-0.56,0.17-1.15,0.26-1.76,0.26c-0.92,0-1.73-0.18-2.45-0.53
			c-0.72-0.35-1.33-0.83-1.82-1.44c-0.54-0.64-0.95-1.38-1.21-2.21c-0.26-0.84-0.39-1.72-0.39-2.65c0-0.79,0.08-1.54,0.23-2.24
			c0.15-0.7,0.41-1.35,0.76-1.95c0.46-0.79,1.1-1.45,1.93-1.97c0.83-0.52,1.81-0.78,2.93-0.78c0.83,0,1.57,0.15,2.23,0.45
			c0.65,0.3,1.22,0.71,1.69,1.23c0.53,0.59,0.93,1.28,1.22,2.08s0.42,1.64,0.41,2.52L333.17,165.34z M330.98,163.45
			c0-0.5-0.07-0.98-0.2-1.45c-0.14-0.47-0.33-0.87-0.59-1.22c-0.27-0.36-0.62-0.65-1.04-0.87c-0.42-0.22-0.93-0.32-1.5-0.32
			c-0.59,0-1.11,0.11-1.54,0.34c-0.43,0.22-0.8,0.52-1.09,0.88c-0.3,0.36-0.52,0.77-0.66,1.23c-0.14,0.46-0.22,0.93-0.24,1.41
			H330.98z"/>
		<path class="st1" d="M341.48,171.16h-2.34l-4.76-13.1h2.27l3.71,10.51l3.59-10.51h2.19L341.48,171.16z"/>
		<path class="st1" d="M358.7,165.34h-9.11c0,0.6,0.11,1.2,0.33,1.8s0.53,1.09,0.92,1.49c0.61,0.62,1.4,0.93,2.37,0.93
			c1.05,0,1.85-0.28,2.39-0.85c0.19-0.19,0.34-0.39,0.46-0.6c0.12-0.21,0.22-0.48,0.31-0.83h2.11c-0.08,0.66-0.31,1.27-0.66,1.84
			c-0.36,0.57-0.8,1.04-1.32,1.4c-0.46,0.31-0.97,0.55-1.53,0.72c-0.56,0.17-1.15,0.26-1.76,0.26c-0.92,0-1.73-0.18-2.45-0.53
			c-0.72-0.35-1.33-0.83-1.82-1.44c-0.54-0.64-0.95-1.38-1.21-2.21c-0.26-0.84-0.39-1.72-0.39-2.65c0-0.79,0.08-1.54,0.23-2.24
			c0.15-0.7,0.41-1.35,0.76-1.95c0.46-0.79,1.1-1.45,1.93-1.97c0.83-0.52,1.81-0.78,2.93-0.78c0.83,0,1.57,0.15,2.23,0.45
			c0.65,0.3,1.22,0.71,1.69,1.23c0.53,0.59,0.93,1.28,1.22,2.08s0.42,1.64,0.41,2.52L358.7,165.34z M356.51,163.45
			c0-0.5-0.07-0.98-0.2-1.45c-0.14-0.47-0.33-0.87-0.59-1.22c-0.27-0.36-0.62-0.65-1.04-0.87c-0.42-0.22-0.93-0.32-1.5-0.32
			c-0.59,0-1.11,0.11-1.54,0.34c-0.43,0.22-0.8,0.52-1.09,0.88c-0.3,0.36-0.52,0.77-0.66,1.23c-0.14,0.46-0.22,0.93-0.24,1.41
			H356.51z"/>
		<path class="st1" d="M366.03,171.16c-0.1,0.03-0.23,0.06-0.38,0.08c-0.25,0.05-0.64,0.08-1.15,0.08c-0.95,0-1.64-0.28-2.06-0.83
			c-0.42-0.55-0.64-1.35-0.64-2.38v-15.63h2.16v15.5c0,0.45,0.08,0.79,0.25,1.01c0.17,0.22,0.47,0.34,0.92,0.34h0.71
			c0.07,0,0.13-0.01,0.18-0.03V171.16z"/>
		<path class="st1" d="M379.26,164.61c0,1.04-0.13,2.01-0.38,2.93c-0.25,0.91-0.74,1.73-1.45,2.43c-0.47,0.47-1.04,0.84-1.69,1.11
			c-0.65,0.28-1.39,0.41-2.2,0.41c-0.81,0-1.55-0.14-2.2-0.41c-0.65-0.28-1.22-0.65-1.69-1.11c-0.71-0.71-1.2-1.52-1.45-2.43
			c-0.25-0.91-0.38-1.89-0.38-2.93c0-1.04,0.13-2.01,0.38-2.92s0.74-1.73,1.45-2.43c0.47-0.47,1.04-0.84,1.69-1.11
			c0.65-0.28,1.39-0.41,2.2-0.41c0.81,0,1.55,0.14,2.2,0.41c0.65,0.28,1.22,0.65,1.69,1.11c0.71,0.71,1.2,1.52,1.45,2.43
			C379.13,162.6,379.26,163.58,379.26,164.61z M377.04,164.61c0-0.78-0.08-1.53-0.25-2.25c-0.17-0.72-0.48-1.33-0.94-1.81
			c-0.27-0.28-0.6-0.5-0.98-0.67c-0.38-0.17-0.83-0.26-1.34-0.26c-0.51,0-0.95,0.09-1.34,0.26c-0.38,0.17-0.71,0.4-0.98,0.67
			c-0.46,0.48-0.77,1.09-0.94,1.81c-0.17,0.72-0.25,1.48-0.25,2.25c0,0.78,0.08,1.53,0.25,2.25c0.17,0.72,0.48,1.33,0.94,1.81
			c0.27,0.28,0.6,0.5,0.98,0.67c0.38,0.17,0.83,0.26,1.34,0.26c0.51,0,0.95-0.09,1.34-0.26c0.38-0.17,0.71-0.4,0.98-0.67
			c0.46-0.48,0.77-1.09,0.94-1.81C376.96,166.14,377.04,165.39,377.04,164.61z"/>
		<path class="st1" d="M393.89,164.61c0,1.14-0.17,2.2-0.5,3.17c-0.33,0.98-0.82,1.78-1.46,2.42c-0.42,0.4-0.93,0.72-1.51,0.96
			c-0.59,0.24-1.26,0.36-2.02,0.36c-0.36,0-0.72-0.04-1.08-0.13c-0.36-0.09-0.72-0.21-1.06-0.36c-0.34-0.16-0.65-0.35-0.93-0.58
			c-0.28-0.23-0.5-0.5-0.67-0.79v7.12h-2.16v-18.69h1.91l0.15,1.71c0.37-0.66,0.92-1.16,1.65-1.51c0.73-0.35,1.46-0.53,2.19-0.53
			c0.8,0,1.5,0.13,2.1,0.38c0.6,0.25,1.12,0.6,1.54,1.05c0.61,0.64,1.07,1.43,1.39,2.38C393.74,162.51,393.89,163.53,393.89,164.61z
			 M391.68,164.64c0-0.6-0.06-1.2-0.17-1.8c-0.11-0.6-0.3-1.13-0.57-1.62c-0.27-0.48-0.65-0.87-1.12-1.16s-1.07-0.44-1.78-0.44
			c-0.47,0-0.88,0.08-1.21,0.25c-0.33,0.16-0.62,0.37-0.88,0.61c-0.54,0.48-0.92,1.09-1.12,1.83c-0.2,0.73-0.31,1.51-0.31,2.34
			s0.1,1.61,0.31,2.34c0.2,0.73,0.58,1.34,1.12,1.83c0.25,0.24,0.55,0.44,0.88,0.61c0.33,0.16,0.73,0.25,1.21,0.25
			c0.71,0,1.31-0.15,1.78-0.44c0.47-0.29,0.85-0.68,1.12-1.16c0.27-0.48,0.46-1.02,0.57-1.62
			C391.62,165.84,391.68,165.24,391.68,164.64z"/>
		<path class="st1" d="M412.78,171.16v-8.33c0-0.47-0.04-0.89-0.13-1.27c-0.08-0.38-0.22-0.7-0.42-0.97
			c-0.19-0.27-0.46-0.48-0.8-0.63c-0.34-0.16-0.76-0.23-1.27-0.23c-0.41,0-0.77,0.08-1.09,0.23c-0.32,0.16-0.61,0.37-0.87,0.65
			c-0.44,0.45-0.73,0.99-0.88,1.62c-0.14,0.63-0.22,1.29-0.22,1.98v6.96h-2.16v-8.33c0-0.47-0.04-0.89-0.11-1.27
			c-0.08-0.38-0.21-0.7-0.41-0.97c-0.19-0.27-0.46-0.48-0.8-0.63c-0.34-0.16-0.76-0.23-1.27-0.23c-0.46,0-0.87,0.11-1.23,0.32
			c-0.36,0.22-0.68,0.5-0.95,0.84c-0.32,0.41-0.55,0.93-0.67,1.55c-0.13,0.62-0.19,1.21-0.19,1.76v6.96h-2.16v-13.1h1.88l0.2,1.86
			c0.34-0.74,0.84-1.29,1.51-1.66c0.67-0.36,1.37-0.54,2.1-0.54c0.97,0,1.78,0.21,2.43,0.63c0.65,0.42,1.12,1.04,1.41,1.85
			c0.17-0.41,0.39-0.78,0.67-1.09c0.28-0.31,0.6-0.57,0.95-0.78c0.36-0.21,0.73-0.36,1.13-0.47c0.4-0.1,0.8-0.16,1.21-0.16
			c1.46,0,2.54,0.44,3.24,1.32c0.7,0.88,1.06,2.04,1.06,3.49v8.62H412.78z"/>
		<path class="st1" d="M429.37,165.34h-9.11c0,0.6,0.11,1.2,0.33,1.8s0.53,1.09,0.92,1.49c0.61,0.62,1.4,0.93,2.37,0.93
			c1.05,0,1.85-0.28,2.39-0.85c0.19-0.19,0.34-0.39,0.46-0.6c0.12-0.21,0.22-0.48,0.31-0.83h2.11c-0.08,0.66-0.31,1.27-0.66,1.84
			c-0.36,0.57-0.8,1.04-1.32,1.4c-0.46,0.31-0.97,0.55-1.53,0.72c-0.56,0.17-1.15,0.26-1.76,0.26c-0.92,0-1.73-0.18-2.45-0.53
			c-0.72-0.35-1.33-0.83-1.82-1.44c-0.54-0.64-0.95-1.38-1.21-2.21c-0.26-0.84-0.39-1.72-0.39-2.65c0-0.79,0.08-1.54,0.23-2.24
			c0.15-0.7,0.41-1.35,0.76-1.95c0.46-0.79,1.1-1.45,1.93-1.97c0.83-0.52,1.81-0.78,2.93-0.78c0.83,0,1.57,0.15,2.23,0.45
			c0.65,0.3,1.22,0.71,1.69,1.23c0.53,0.59,0.93,1.28,1.22,2.08s0.42,1.64,0.41,2.52L429.37,165.34z M427.18,163.45
			c0-0.5-0.07-0.98-0.2-1.45c-0.14-0.47-0.33-0.87-0.59-1.22c-0.27-0.36-0.62-0.65-1.04-0.87c-0.42-0.22-0.93-0.32-1.5-0.32
			c-0.59,0-1.11,0.11-1.54,0.34c-0.43,0.22-0.8,0.52-1.09,0.88c-0.3,0.36-0.52,0.77-0.66,1.23c-0.14,0.46-0.22,0.93-0.24,1.41
			H427.18z"/>
		<path class="st1" d="M440.8,171.16v-8.31c0-0.98-0.22-1.75-0.65-2.3c-0.43-0.55-1.16-0.83-2.17-0.83c-0.63,0-1.18,0.19-1.65,0.56
			c-0.47,0.37-0.86,0.86-1.15,1.46c-0.22,0.48-0.35,1.04-0.39,1.66c-0.04,0.62-0.06,1.18-0.06,1.68v6.08h-2.16v-13.1h1.88l0.18,1.97
			c0.17-0.38,0.4-0.71,0.69-1c0.29-0.28,0.61-0.52,0.97-0.71c0.36-0.19,0.73-0.34,1.12-0.44c0.39-0.1,0.76-0.16,1.12-0.16
			c1.48,0,2.59,0.42,3.33,1.27c0.75,0.85,1.12,2.03,1.12,3.55v8.62H440.8z"/>
		<path class="st1" d="M453.77,170.99c-0.29,0.09-0.64,0.17-1.06,0.24c-0.42,0.08-0.92,0.11-1.51,0.11c-0.7,0-1.27-0.1-1.73-0.31
			c-0.46-0.21-0.82-0.47-1.08-0.8c-0.26-0.33-0.45-0.7-0.56-1.13c-0.11-0.42-0.17-0.86-0.17-1.31v-7.84h-2.49v-1.89h2.49v-3.34
			l2.16-0.52v3.86h3.82v1.89h-3.82v7.61c0,0.64,0.14,1.1,0.42,1.38c0.28,0.28,0.72,0.42,1.31,0.42c0.24,0,0.48-0.01,0.74-0.03
			c0.25-0.02,0.49-0.04,0.71-0.08c0.25-0.03,0.51-0.08,0.76-0.13V170.99z"/>
		<path class="st1" d="M466.35,167.36c0,0.57-0.09,1.07-0.28,1.51c-0.19,0.44-0.43,0.82-0.74,1.15c-0.49,0.52-1.1,0.89-1.83,1.13
			c-0.73,0.23-1.52,0.35-2.37,0.35c-0.81,0-1.58-0.11-2.29-0.32c-0.71-0.22-1.34-0.6-1.88-1.15c-0.39-0.4-0.7-0.86-0.92-1.38
			c-0.22-0.53-0.33-1.07-0.33-1.62h2.16c0.02,0.45,0.12,0.84,0.31,1.18c0.19,0.34,0.43,0.63,0.74,0.87
			c0.29,0.22,0.65,0.38,1.07,0.47c0.42,0.09,0.84,0.13,1.25,0.13c0.44,0,0.86-0.05,1.26-0.14c0.4-0.09,0.77-0.29,1.11-0.58
			c0.19-0.14,0.34-0.34,0.46-0.6c0.12-0.26,0.18-0.53,0.18-0.83c0-0.5-0.17-0.91-0.51-1.24c-0.34-0.33-0.84-0.53-1.5-0.62
			c-0.14-0.02-0.32-0.04-0.56-0.08c-0.24-0.03-0.49-0.07-0.76-0.1c-0.27-0.03-0.55-0.07-0.83-0.1c-0.28-0.03-0.53-0.07-0.75-0.1
			c-0.97-0.16-1.74-0.53-2.3-1.13c-0.57-0.6-0.85-1.39-0.85-2.39c0-0.5,0.11-0.98,0.32-1.44c0.21-0.46,0.46-0.83,0.75-1.13
			c0.42-0.45,0.96-0.8,1.6-1.06c0.65-0.26,1.37-0.39,2.19-0.39c0.86,0,1.65,0.14,2.37,0.41s1.29,0.69,1.73,1.24
			c0.29,0.35,0.51,0.72,0.67,1.11c0.16,0.4,0.24,0.86,0.24,1.4h-2.16c-0.02-0.34-0.1-0.66-0.24-0.94c-0.14-0.28-0.31-0.51-0.5-0.69
			c-0.51-0.47-1.21-0.7-2.11-0.7c-0.25,0-0.49,0.01-0.71,0.03c-0.22,0.02-0.48,0.09-0.79,0.23c-0.41,0.17-0.73,0.42-0.95,0.74
			c-0.23,0.32-0.34,0.66-0.34,1.02c0,0.55,0.15,0.95,0.46,1.2c0.31,0.25,0.73,0.42,1.27,0.5c0.36,0.05,0.79,0.11,1.3,0.17
			s1.11,0.15,1.81,0.27c0.92,0.16,1.69,0.55,2.33,1.19C466.03,165.56,466.35,166.38,466.35,167.36z"/>
		<path class="st1" d="M257.08,189.88c0,0.41-0.03,0.86-0.08,1.33c-0.05,0.47-0.13,0.94-0.23,1.4c-0.1,0.46-0.23,0.89-0.39,1.29
			c-0.16,0.4-0.34,0.76-0.55,1.07l3.08,3.49h-2.75l-1.55-1.79c-0.64,0.74-1.42,1.28-2.33,1.62c-0.91,0.34-1.85,0.5-2.81,0.5
			c-0.78,0-1.51-0.12-2.2-0.36c-0.69-0.24-1.29-0.59-1.79-1.05c-0.51-0.46-0.91-1.01-1.21-1.67s-0.45-1.4-0.45-2.23
			c0-0.97,0.22-1.85,0.67-2.64s1.07-1.44,1.87-1.94c0.32-0.22,0.62-0.41,0.89-0.57c-0.29-0.33-0.56-0.65-0.83-0.96
			c-0.26-0.31-0.49-0.63-0.69-0.97c-0.2-0.34-0.35-0.69-0.46-1.07c-0.11-0.38-0.17-0.81-0.17-1.29c0-0.64,0.11-1.22,0.34-1.73
			c0.23-0.52,0.55-0.97,0.95-1.35c0.41-0.38,0.89-0.67,1.44-0.88c0.55-0.21,1.16-0.31,1.82-0.31c0.66,0,1.28,0.1,1.85,0.3
			c0.57,0.2,1.06,0.49,1.46,0.87c0.41,0.38,0.73,0.84,0.95,1.37c0.23,0.54,0.34,1.14,0.34,1.81c0,0.88-0.2,1.67-0.6,2.36
			c-0.4,0.69-0.97,1.26-1.72,1.71c-0.22,0.14-0.44,0.28-0.65,0.41s-0.43,0.28-0.65,0.41l3.74,4.3c0.17-0.33,0.3-0.72,0.39-1.18
			c0.09-0.46,0.16-0.93,0.19-1.41c0.03-0.48,0.05-0.97,0.05-1.45s0-0.91,0-1.29h3.89v1.89H257.08z M248.58,189.83
			c-0.19,0.12-0.36,0.23-0.52,0.34c-0.16,0.1-0.34,0.22-0.52,0.34c-0.49,0.35-0.87,0.77-1.15,1.28c-0.27,0.51-0.41,1.07-0.41,1.67
			c0,0.48,0.08,0.93,0.25,1.33c0.17,0.41,0.41,0.76,0.71,1.05c0.31,0.29,0.66,0.52,1.07,0.69c0.41,0.16,0.85,0.25,1.32,0.25
			c0.8,0,1.52-0.11,2.18-0.34c0.65-0.22,1.23-0.66,1.72-1.32L248.58,189.83z M252.17,184.16c0-0.78-0.22-1.39-0.66-1.84
			c-0.44-0.45-1.07-0.67-1.88-0.67c-0.71,0-1.29,0.22-1.73,0.66c-0.44,0.44-0.66,1.01-0.66,1.72c0,0.36,0.06,0.7,0.19,1.02
			c0.13,0.32,0.29,0.62,0.5,0.91c0.2,0.28,0.43,0.55,0.67,0.8c0.25,0.25,0.48,0.5,0.7,0.76c0.36-0.21,0.71-0.4,1.06-0.59
			c0.35-0.19,0.65-0.41,0.92-0.66c0.26-0.25,0.48-0.54,0.65-0.88C252.09,185.05,252.17,184.65,252.17,184.16z"/>
		<path class="st1" d="M279.32,198.48l-3.41-7.64h-4.99v7.64h-2.26v-18.35h7.07c1.07,0,1.98,0.14,2.72,0.43
			c0.75,0.28,1.37,0.69,1.86,1.2c0.44,0.47,0.79,1,1.04,1.61c0.25,0.6,0.38,1.31,0.38,2.12c0,0.81-0.12,1.5-0.36,2.07
			s-0.58,1.09-1.02,1.55c-0.27,0.29-0.59,0.55-0.95,0.76c-0.36,0.22-0.77,0.39-1.21,0.53l3.61,8.08H279.32z M279.4,185.48
			c0-1.16-0.34-1.98-1.03-2.48c-0.69-0.5-1.57-0.75-2.63-0.75h-4.81v6.45h4.81c0.53,0,1.01-0.06,1.46-0.17
			c0.45-0.11,0.84-0.3,1.17-0.56c0.33-0.26,0.59-0.59,0.76-1C279.31,186.56,279.4,186.07,279.4,185.48z"/>
		<path class="st1" d="M294.62,192.65h-9.11c0,0.6,0.11,1.2,0.33,1.8c0.22,0.59,0.53,1.09,0.92,1.49c0.61,0.62,1.4,0.93,2.37,0.93
			c1.05,0,1.85-0.28,2.39-0.85c0.19-0.19,0.34-0.39,0.46-0.6c0.12-0.21,0.22-0.48,0.31-0.83h2.11c-0.08,0.66-0.31,1.27-0.66,1.84
			c-0.36,0.57-0.8,1.04-1.32,1.4c-0.46,0.31-0.97,0.55-1.53,0.72c-0.56,0.17-1.15,0.26-1.76,0.26c-0.92,0-1.73-0.18-2.45-0.53
			c-0.72-0.35-1.33-0.83-1.82-1.44c-0.54-0.64-0.95-1.38-1.21-2.21c-0.26-0.84-0.39-1.72-0.39-2.65c0-0.79,0.08-1.54,0.23-2.24
			c0.15-0.7,0.41-1.35,0.76-1.95c0.46-0.79,1.1-1.45,1.93-1.97c0.83-0.52,1.81-0.78,2.93-0.78c0.83,0,1.57,0.15,2.23,0.45
			c0.65,0.3,1.22,0.71,1.69,1.23c0.53,0.59,0.93,1.28,1.22,2.08c0.29,0.8,0.42,1.64,0.41,2.52L294.62,192.65z M292.43,190.76
			c0-0.5-0.07-0.98-0.2-1.45c-0.14-0.47-0.33-0.87-0.59-1.22c-0.27-0.36-0.62-0.65-1.04-0.87c-0.42-0.22-0.93-0.32-1.5-0.32
			c-0.59,0-1.11,0.11-1.54,0.34c-0.43,0.22-0.8,0.52-1.09,0.88c-0.3,0.36-0.52,0.77-0.66,1.23c-0.15,0.46-0.23,0.93-0.24,1.41
			H292.43z"/>
		<path class="st1" d="M305.19,198.48v-8.31c0-0.98-0.22-1.75-0.65-2.3c-0.43-0.55-1.16-0.83-2.17-0.83c-0.63,0-1.18,0.19-1.65,0.56
			c-0.47,0.37-0.86,0.86-1.15,1.46c-0.22,0.48-0.35,1.04-0.39,1.66c-0.04,0.62-0.06,1.18-0.06,1.68v6.08h-2.16v-13.1h1.88l0.18,1.97
			c0.17-0.38,0.4-0.71,0.69-1c0.29-0.28,0.61-0.52,0.97-0.71c0.36-0.19,0.73-0.34,1.12-0.44c0.39-0.1,0.76-0.16,1.12-0.16
			c1.48,0,2.59,0.42,3.33,1.27c0.75,0.85,1.12,2.03,1.12,3.55v8.62H305.19z"/>
		<path class="st1" d="M321.33,192.65h-9.11c0,0.6,0.11,1.2,0.33,1.8c0.22,0.59,0.53,1.09,0.92,1.49c0.61,0.62,1.4,0.93,2.37,0.93
			c1.05,0,1.85-0.28,2.39-0.85c0.19-0.19,0.34-0.39,0.46-0.6c0.12-0.21,0.22-0.48,0.31-0.83h2.11c-0.08,0.66-0.31,1.27-0.66,1.84
			c-0.36,0.57-0.8,1.04-1.32,1.4c-0.46,0.31-0.97,0.55-1.53,0.72c-0.56,0.17-1.15,0.26-1.76,0.26c-0.92,0-1.73-0.18-2.45-0.53
			c-0.72-0.35-1.33-0.83-1.82-1.44c-0.54-0.64-0.95-1.38-1.21-2.21c-0.26-0.84-0.39-1.72-0.39-2.65c0-0.79,0.08-1.54,0.23-2.24
			c0.15-0.7,0.41-1.35,0.76-1.95c0.46-0.79,1.1-1.45,1.93-1.97c0.83-0.52,1.81-0.78,2.93-0.78c0.83,0,1.57,0.15,2.23,0.45
			c0.65,0.3,1.22,0.71,1.69,1.23c0.53,0.59,0.93,1.28,1.22,2.08c0.29,0.8,0.42,1.64,0.41,2.52L321.33,192.65z M319.14,190.76
			c0-0.5-0.07-0.98-0.2-1.45c-0.14-0.47-0.33-0.87-0.59-1.22c-0.27-0.36-0.62-0.65-1.04-0.87c-0.42-0.22-0.93-0.32-1.5-0.32
			c-0.59,0-1.11,0.11-1.54,0.34c-0.43,0.22-0.8,0.52-1.09,0.88c-0.3,0.36-0.52,0.77-0.66,1.23c-0.14,0.46-0.22,0.93-0.24,1.41
			H319.14z"/>
		<path class="st1" d="M337.29,198.48h-2.09l-3.36-10.02l-3.43,10.02h-2.06l-3.31-13.1h2.14l2.47,9.89l3.28-9.73h1.86l3.23,9.73
			l2.49-9.89h2.11L337.29,198.48z"/>
		<path class="st1" d="M353.78,198.35c-0.24,0.12-0.47,0.2-0.69,0.25c-0.22,0.04-0.47,0.07-0.74,0.07c-0.58,0-1.04-0.19-1.38-0.58
			c-0.34-0.39-0.5-0.86-0.5-1.41h-0.05c-0.37,0.66-0.93,1.18-1.66,1.57c-0.74,0.39-1.56,0.58-2.47,0.58c-0.74,0-1.39-0.12-1.94-0.35
			c-0.55-0.23-1.01-0.54-1.37-0.92c-0.36-0.38-0.64-0.81-0.82-1.29c-0.19-0.48-0.28-0.97-0.28-1.48c0-0.41,0.07-0.85,0.22-1.32
			c0.14-0.47,0.39-0.89,0.75-1.28c0.35-0.39,0.82-0.72,1.41-1c0.58-0.28,1.31-0.44,2.19-0.49l3.91-0.23v-0.96
			c0-0.33-0.04-0.67-0.11-1.04s-0.26-0.68-0.55-0.96c-0.22-0.21-0.5-0.37-0.83-0.49c-0.33-0.12-0.76-0.18-1.28-0.18
			c-0.59,0-1.08,0.07-1.45,0.22c-0.37,0.15-0.67,0.33-0.89,0.56c-0.42,0.43-0.64,0.96-0.64,1.58h-2.11c0.02-0.6,0.12-1.13,0.32-1.57
			c0.19-0.44,0.46-0.83,0.8-1.18c0.44-0.47,1.01-0.81,1.72-1.05c0.7-0.23,1.45-0.35,2.25-0.35c1.25,0,2.25,0.24,2.98,0.71
			c0.73,0.48,1.26,1.07,1.57,1.8c0.26,0.6,0.39,1.28,0.39,2.02v6.34c0,0.35,0.06,0.58,0.19,0.7c0.13,0.12,0.3,0.18,0.52,0.18
			c0.05,0,0.11,0,0.18,0c0.07,0,0.13-0.01,0.18-0.03l0.2-0.05V198.35z M350.35,192.16l-3.45,0.21c-0.32,0.02-0.65,0.07-0.99,0.17
			c-0.34,0.09-0.64,0.23-0.91,0.41c-0.27,0.18-0.49,0.42-0.66,0.71c-0.17,0.29-0.25,0.65-0.25,1.06c0,0.59,0.19,1.11,0.58,1.57
			c0.39,0.46,1.04,0.69,1.95,0.69c0.49,0,0.97-0.09,1.43-0.26c0.46-0.17,0.87-0.44,1.2-0.8c0.39-0.4,0.67-0.85,0.84-1.37
			c0.17-0.52,0.25-1.05,0.25-1.61V192.16z"/>
		<path class="st1" d="M368.43,191.95c0,1.09-0.16,2.1-0.47,3.05c-0.31,0.95-0.78,1.74-1.39,2.38c-0.42,0.45-0.94,0.8-1.54,1.05
			c-0.6,0.25-1.3,0.38-2.1,0.38c-0.73,0-1.46-0.18-2.19-0.53c-0.73-0.35-1.28-0.86-1.65-1.51l-0.15,1.71h-1.91v-18.69h2.16v7.12
			c0.17-0.29,0.39-0.56,0.67-0.79c0.28-0.23,0.59-0.43,0.93-0.58c0.34-0.15,0.69-0.28,1.06-0.36c0.36-0.09,0.73-0.13,1.08-0.13
			c0.76,0,1.44,0.12,2.02,0.36c0.58,0.24,1.09,0.56,1.51,0.96c0.64,0.64,1.13,1.45,1.46,2.42
			C368.27,189.76,368.43,190.81,368.43,191.95z M366.22,191.93c0-0.6-0.06-1.2-0.17-1.8c-0.11-0.59-0.3-1.13-0.57-1.62
			c-0.27-0.48-0.65-0.87-1.12-1.16c-0.47-0.29-1.07-0.44-1.78-0.44c-0.47,0-0.88,0.08-1.21,0.25c-0.33,0.16-0.62,0.37-0.88,0.61
			c-0.54,0.48-0.92,1.09-1.12,1.83c-0.2,0.73-0.31,1.51-0.31,2.34c0,0.83,0.1,1.61,0.31,2.34c0.2,0.73,0.58,1.34,1.12,1.82
			c0.25,0.24,0.55,0.45,0.88,0.61c0.33,0.16,0.73,0.25,1.21,0.25c0.71,0,1.31-0.15,1.78-0.44c0.47-0.29,0.85-0.68,1.12-1.16
			c0.27-0.48,0.46-1.02,0.57-1.62C366.16,193.13,366.22,192.53,366.22,191.93z"/>
		<path class="st1" d="M374.95,198.48c-0.1,0.03-0.23,0.06-0.38,0.08c-0.25,0.05-0.64,0.08-1.15,0.08c-0.95,0-1.64-0.28-2.06-0.83
			c-0.42-0.55-0.64-1.35-0.64-2.38v-15.63h2.16v15.5c0,0.45,0.08,0.79,0.25,1.01c0.17,0.22,0.47,0.34,0.92,0.34h0.71
			c0.07,0,0.13-0.01,0.18-0.03V198.48z"/>
		<path class="st1" d="M387.59,192.65h-9.11c0,0.6,0.11,1.2,0.33,1.8c0.22,0.59,0.53,1.09,0.92,1.49c0.61,0.62,1.4,0.93,2.37,0.93
			c1.05,0,1.85-0.28,2.39-0.85c0.19-0.19,0.34-0.39,0.46-0.6c0.12-0.21,0.22-0.48,0.31-0.83h2.11c-0.08,0.66-0.31,1.27-0.66,1.84
			c-0.36,0.57-0.8,1.04-1.32,1.4c-0.46,0.31-0.97,0.55-1.53,0.72c-0.56,0.17-1.15,0.26-1.76,0.26c-0.92,0-1.73-0.18-2.45-0.53
			c-0.72-0.35-1.33-0.83-1.82-1.44c-0.54-0.64-0.95-1.38-1.21-2.21c-0.26-0.84-0.39-1.72-0.39-2.65c0-0.79,0.08-1.54,0.23-2.24
			c0.15-0.7,0.41-1.35,0.76-1.95c0.46-0.79,1.1-1.45,1.93-1.97c0.83-0.52,1.81-0.78,2.93-0.78c0.83,0,1.57,0.15,2.23,0.45
			c0.65,0.3,1.22,0.71,1.69,1.23c0.53,0.59,0.93,1.28,1.22,2.08c0.29,0.8,0.42,1.64,0.41,2.52L387.59,192.65z M385.4,190.76
			c0-0.5-0.07-0.98-0.2-1.45c-0.14-0.47-0.33-0.87-0.59-1.22c-0.27-0.36-0.62-0.65-1.04-0.87c-0.42-0.22-0.93-0.32-1.5-0.32
			c-0.59,0-1.11,0.11-1.54,0.34c-0.43,0.22-0.8,0.52-1.09,0.88c-0.3,0.36-0.52,0.77-0.66,1.23c-0.14,0.46-0.22,0.93-0.24,1.41H385.4
			z"/>
		<path class="st1" d="M400.52,194.67c0,0.57-0.09,1.07-0.28,1.51c-0.19,0.44-0.43,0.82-0.74,1.15c-0.49,0.52-1.1,0.89-1.83,1.13
			c-0.73,0.23-1.52,0.35-2.37,0.35c-0.81,0-1.58-0.11-2.29-0.32c-0.71-0.22-1.34-0.6-1.88-1.15c-0.39-0.4-0.7-0.86-0.92-1.39
			c-0.22-0.53-0.33-1.07-0.33-1.62h2.16c0.02,0.45,0.12,0.84,0.31,1.18c0.19,0.34,0.43,0.63,0.74,0.87
			c0.29,0.22,0.65,0.38,1.07,0.47c0.42,0.09,0.84,0.13,1.25,0.13c0.44,0,0.86-0.05,1.26-0.14c0.4-0.09,0.77-0.29,1.11-0.58
			c0.19-0.14,0.34-0.34,0.46-0.6c0.12-0.26,0.18-0.53,0.18-0.83c0-0.5-0.17-0.92-0.51-1.24c-0.34-0.33-0.84-0.53-1.5-0.62
			c-0.14-0.02-0.32-0.04-0.56-0.08c-0.24-0.03-0.49-0.07-0.76-0.1c-0.27-0.03-0.55-0.07-0.83-0.1c-0.28-0.03-0.53-0.07-0.75-0.1
			c-0.97-0.16-1.74-0.53-2.3-1.13c-0.57-0.59-0.85-1.39-0.85-2.39c0-0.5,0.11-0.98,0.32-1.44c0.21-0.46,0.46-0.83,0.75-1.13
			c0.42-0.45,0.96-0.8,1.6-1.06c0.65-0.26,1.37-0.39,2.19-0.39c0.86,0,1.65,0.14,2.37,0.41c0.71,0.28,1.29,0.69,1.73,1.24
			c0.29,0.35,0.51,0.72,0.67,1.11c0.16,0.4,0.24,0.86,0.24,1.4h-2.16c-0.02-0.34-0.1-0.66-0.24-0.94c-0.14-0.28-0.31-0.51-0.5-0.69
			c-0.51-0.47-1.21-0.7-2.11-0.7c-0.25,0-0.49,0.01-0.71,0.03c-0.22,0.02-0.48,0.09-0.79,0.23c-0.41,0.17-0.73,0.42-0.95,0.74
			c-0.23,0.32-0.34,0.66-0.34,1.02c0,0.55,0.15,0.95,0.46,1.2c0.31,0.25,0.73,0.42,1.27,0.5c0.36,0.05,0.79,0.11,1.3,0.17
			c0.51,0.06,1.11,0.15,1.81,0.27c0.92,0.16,1.69,0.55,2.33,1.19C400.2,192.88,400.52,193.69,400.52,194.67z"/>
		<path class="st1" d="M412.16,198.48v-18.35h2.27v16.2h8.68v2.15H412.16z"/>
		<path class="st1" d="M430.51,198.3c-0.29,0.09-0.64,0.17-1.06,0.24c-0.42,0.08-0.92,0.12-1.51,0.12c-0.7,0-1.27-0.1-1.73-0.31
			s-0.82-0.47-1.08-0.8c-0.26-0.33-0.45-0.7-0.56-1.13c-0.11-0.42-0.17-0.86-0.17-1.31v-7.84h-2.49v-1.89h2.49v-3.34l2.16-0.52v3.86
			h3.82v1.89h-3.82v7.61c0,0.64,0.14,1.1,0.42,1.38c0.28,0.28,0.72,0.42,1.31,0.42c0.24,0,0.48-0.01,0.74-0.03
			c0.25-0.02,0.49-0.04,0.71-0.08c0.25-0.03,0.51-0.08,0.76-0.13V198.3z"/>
		<path class="st1" d="M441.06,198.48l-0.15-1.71c-0.37,0.66-0.93,1.16-1.65,1.51c-0.73,0.35-1.46,0.53-2.19,0.53
			c-0.8,0-1.5-0.12-2.1-0.38c-0.6-0.25-1.12-0.6-1.54-1.05c-0.61-0.64-1.07-1.43-1.39-2.38c-0.31-0.95-0.47-1.97-0.47-3.05
			c0-1.14,0.17-2.2,0.5-3.17c0.33-0.97,0.82-1.78,1.46-2.42c0.42-0.4,0.93-0.72,1.51-0.96c0.58-0.24,1.26-0.36,2.02-0.36
			c0.36,0,0.72,0.04,1.08,0.13c0.36,0.09,0.72,0.21,1.06,0.36c0.34,0.16,0.65,0.35,0.93,0.58c0.28,0.23,0.5,0.5,0.67,0.79v-7.12
			h2.16v18.69H441.06z M440.93,191.93c0-0.83-0.1-1.61-0.31-2.34c-0.2-0.73-0.58-1.34-1.12-1.83c-0.25-0.24-0.55-0.44-0.88-0.61
			c-0.33-0.16-0.73-0.25-1.21-0.25c-0.71,0-1.31,0.15-1.78,0.44c-0.47,0.29-0.85,0.68-1.12,1.16c-0.27,0.48-0.46,1.02-0.57,1.62
			c-0.11,0.6-0.16,1.2-0.16,1.8c0,0.6,0.05,1.2,0.16,1.8c0.11,0.6,0.3,1.13,0.57,1.62c0.27,0.48,0.65,0.87,1.12,1.16
			c0.47,0.29,1.07,0.44,1.78,0.44c0.47,0,0.88-0.08,1.21-0.25c0.33-0.16,0.62-0.37,0.88-0.61c0.54-0.48,0.92-1.09,1.12-1.82
			C440.83,193.54,440.93,192.75,440.93,191.93z"/>
	</g>
</g>
</svg>
